<svg xmlns="http://www.w3.org/2000/svg" viewBox="0 0 680 196" role="img" font-family="system-ui, -apple-system, 'Segoe UI', sans-serif">
  <title>SELECT by Primary Key</title>
  <rect width="680" height="196" fill="#fff" rx="6" />
  <text x="340" y="20" text-anchor="middle" font-size="15" font-weight="600" fill="#222">SELECT by Primary Key</text>
  <text x="340" y="36" text-anchor="middle" font-size="11" fill="#888">Fetch single row by integer primary key · higher is better</text>
  <line x1="168" y1="60" x2="168" y2="170" stroke="#ececec" stroke-width="1" />
  <line x1="228.8" y1="60" x2="228.8" y2="170" stroke="#ececec" stroke-width="1" />
  <line x1="289.61" y1="60" x2="289.61" y2="170" stroke="#ececec" stroke-width="1" />
  <line x1="350.41" y1="60" x2="350.41" y2="170" stroke="#ececec" stroke-width="1" />
  <line x1="411.22" y1="60" x2="411.22" y2="170" stroke="#ececec" stroke-width="1" />
  <line x1="472.02" y1="60" x2="472.02" y2="170" stroke="#ececec" stroke-width="1" />
  <line x1="532.83" y1="60" x2="532.83" y2="170" stroke="#ececec" stroke-width="1" />
  <text x="160" y="81" text-anchor="end" font-size="12" fill="#444">@photostructure/sqlite</text>
  <rect x="168" y="64" width="330.45" height="26" fill="#1B6B8A" rx="3" opacity="0.9" />
  <text x="504.45" y="81" font-size="11" fill="#555">110,000 ops/s</text>
  <text x="160" y="119" text-anchor="end" font-size="12" fill="#444">better-sqlite3</text>
  <rect x="168" y="102" width="408" height="26" fill="#B8860B" rx="3" opacity="0.9" />
  <text x="582" y="119" font-size="11" fill="#555">130,000 ops/s</text>
  <text x="160" y="157" text-anchor="end" font-size="12" fill="#444">node:sqlite</text>
  <rect x="168" y="140" width="372.25" height="26" fill="#43853D" rx="3" opacity="0.9" />
  <text x="546.25" y="157" font-size="11" fill="#555">120,000 ops/s</text>
  <text x="168" y="184" text-anchor="middle" font-size="10" fill="#999">0</text>
  <text x="228.8" y="184" text-anchor="middle" font-size="10" fill="#999">20,000</text>
  <text x="289.61" y="184" text-anchor="middle" font-size="10" fill="#999">40,000</text>
  <text x="350.41" y="184" text-anchor="middle" font-size="10" fill="#999">60,000</text>
  <text x="411.22" y="184" text-anchor="middle" font-size="10" fill="#999">80,000</text>
  <text x="472.02" y="184" text-anchor="middle" font-size="10" fill="#999">100,000</text>
  <text x="532.83" y="184" text-anchor="middle" font-size="10" fill="#999">120,000</text>
</svg>